<svg width="32" height="32" viewBox="0 0 32 32" fill="none" xmlns="http://www.w3.org/2000/svg">
<path d="M7.74699 13.1C7.74547 12.0326 7.95982 10.9754 8.3777 9.98949C8.79557 9.00356 9.4087 8.10831 10.1817 7.35537C10.9548 6.60243 11.8725 6.00667 12.8819 5.60245C13.8913 5.19823 14.9724 4.99353 16.063 5.00016C20.6138 5.03327 24.2539 8.73532 24.2539 13.2016V14C24.2539 18.0292 25.1153 20.3674 25.8739 21.6453C25.9556 21.7818 25.9991 21.9371 26 22.0953C26.0008 22.2535 25.9591 22.4092 25.8788 22.5466C25.7986 22.684 25.6828 22.7983 25.543 22.8779C25.4033 22.9575 25.2446 22.9996 25.0829 23H6.91712C6.75541 22.9996 6.59667 22.9575 6.45692 22.8778C6.31716 22.7982 6.20133 22.6839 6.12111 22.5465C6.04089 22.4091 5.99912 22.2534 6.00001 22.0951C6.00091 21.9369 6.04443 21.7816 6.1262 21.6451C6.88524 20.3671 7.74698 18.029 7.74698 14L7.74699 13.1Z" stroke="black" stroke-width="2" stroke-linecap="round" stroke-linejoin="round"/>
<path d="M12 23V24C12 25.0609 12.4214 26.0783 13.1716 26.8284C13.9217 27.5786 14.9391 28 16 28C17.0609 28 18.0783 27.5786 18.8284 26.8284C19.5786 26.0783 20 25.0609 20 24V23" stroke="black" stroke-width="2" stroke-linecap="round" stroke-linejoin="round"/>
</svg>
