<svg width="180" height="81" viewBox="0 0 180 81" fill="none" xmlns="http://www.w3.org/2000/svg">
<path fill-rule="evenodd" clip-rule="evenodd" d="M28.9094 54.3247C30.0955 56.381 32.2209 57.6086 34.5948 57.6086H34.5949C37.2869 57.6086 39.7966 56.161 41.1445 53.8306L44.298 48.3784H28.5959C27.7359 50.2946 27.8403 52.4713 28.9094 54.3247" fill="#AEC0CF"/>
<path fill-rule="evenodd" clip-rule="evenodd" d="M55.2535 53.8255C56.6008 56.159 59.1116 57.6086 61.8061 57.6086H61.8077C64.1818 57.6086 66.3078 56.3812 67.4949 54.3251C68.5646 52.4723 68.6702 50.2953 67.8119 48.3784H52.1086L55.2535 53.8255" fill="#AEC0CF"/>
<path fill-rule="evenodd" clip-rule="evenodd" d="M66.4203 45.8972L60.7814 36.1333H35.6274L29.9885 45.8972H66.4203" fill="#AEC0CF"/>
<path fill-rule="evenodd" clip-rule="evenodd" d="M48.5101 24.0247H47.9108C44.6498 24.0247 41.6109 25.7789 39.98 28.6026L37.0613 33.652H59.3507L56.4402 28.6016C54.8099 25.7789 51.771 24.0247 48.5101 24.0247" fill="#AEC0CF"/>
<path fill-rule="evenodd" clip-rule="evenodd" d="M78.636 44.5802C78.636 42.6289 79.4997 41.1894 81.1311 40.5496C81.8669 40.2617 83.1465 40.1017 84.9698 40.1017H85.9295C86.7293 40.1017 87.433 40.1337 88.0728 40.1977V38.3743C88.0728 36.0391 86.8892 35.2394 84.2021 35.2394C83.0825 35.2394 81.9949 35.3993 80.9072 35.7192C80.4274 35.8472 80.1715 35.8472 80.0755 35.4633L79.9156 34.7915C79.7876 34.4077 79.8836 34.1837 80.2674 34.0878C81.643 33.6719 83.0185 33.448 84.362 33.448C88.4567 33.448 90.1521 34.8235 90.1521 38.1504V49.0907C90.1521 49.3466 90.0881 49.4106 89.8002 49.4106H88.7446C88.4567 49.4106 88.3287 49.3146 88.3287 49.0907L88.2647 48.0031H88.2007C87.497 49.1227 86.3774 49.6985 84.8099 49.6985H83.2104C81.8029 49.6985 80.5233 49.2826 79.7876 48.5469C79.0199 47.7792 78.636 46.7875 78.636 45.5399V44.5802ZM80.7473 45.284C80.7473 46.2757 80.9712 46.9474 81.419 47.3633C81.8349 47.7472 82.4747 47.9391 83.3704 47.9391H84.6819C86.8252 47.9391 88.0728 46.7875 88.0728 44.6122V41.9571C87.561 41.8931 86.9212 41.8611 86.1534 41.8611H84.362C83.0185 41.8611 82.0908 42.0851 81.547 42.5009C81.0032 42.9168 80.7473 43.6205 80.7473 44.6122V45.284V45.284Z" fill="#AEC0CF"/>
<path fill-rule="evenodd" clip-rule="evenodd" d="M94.5022 28.1058C94.5022 27.8819 94.6301 27.7539 94.886 27.7539H96.1976C96.4535 27.7539 96.5815 27.8819 96.5815 28.1058V45.22C96.5815 46.3716 96.6135 46.7555 96.8693 47.2353C97.0293 47.4592 97.4132 47.5872 98.021 47.5872H98.8847C99.0766 47.5872 99.2686 47.6192 99.2686 47.9391V49.0267C99.2686 49.2826 99.1726 49.4106 98.9486 49.4106H97.7331C96.5815 49.4106 95.7497 49.1547 95.2699 48.6748C94.7581 48.131 94.5022 47.1394 94.5022 45.7318V28.1058" fill="#AEC0CF"/>
<path fill-rule="evenodd" clip-rule="evenodd" d="M102.403 29.5133C102.403 28.4896 102.979 28.0098 103.875 28.0098H104.003C104.93 28.0098 105.41 28.5216 105.41 29.5133V29.7052C105.41 30.7289 104.867 31.2407 104.003 31.2407H103.875C102.819 31.2407 102.403 30.7609 102.403 29.7052V29.5133ZM102.883 34.0877C102.883 33.8638 103.011 33.7359 103.267 33.7359H104.579C104.835 33.7359 104.962 33.8638 104.962 34.0877V49.1546C104.962 49.3146 104.867 49.4105 104.675 49.4105H103.139C102.979 49.4105 102.883 49.3146 102.883 49.1546V34.0877V34.0877Z" fill="#AEC0CF"/>
<path fill-rule="evenodd" clip-rule="evenodd" d="M109.025 40.9974C109.025 35.3354 110.912 33.448 115.167 33.448C117.214 33.448 118.653 34.0878 119.517 35.3673H119.581L119.741 34.1197C119.773 33.8638 119.933 33.7359 120.221 33.7359H120.989C121.34 33.7359 121.436 33.7999 121.436 34.1517V54.7208C121.436 54.9447 121.34 55.0726 121.117 55.0726H119.677C119.453 55.0726 119.357 54.9447 119.357 54.7208V48.0031H119.293C118.397 49.1227 116.99 49.6985 115.071 49.6985C110.72 49.6985 109.025 47.6192 109.025 42.5009V40.9974ZM111.136 42.341C111.136 44.5162 111.488 46.0197 112.192 46.8195C112.863 47.5872 113.759 47.9071 115.327 47.9071C117.886 47.9071 119.357 46.5955 119.357 44.0684V39.334C119.357 36.7429 117.886 35.2394 115.199 35.2394C113.791 35.2394 112.959 35.5273 112.32 36.1991C111.52 37.0628 111.136 38.7582 111.136 41.2853V42.341V42.341Z" fill="#AEC0CF"/>
<path fill-rule="evenodd" clip-rule="evenodd" d="M125.595 34.2477C125.595 33.9598 125.787 33.7358 126.043 33.7358H127.226C127.514 33.7358 127.674 33.8958 127.674 34.1837V44.6442C127.674 45.9237 127.898 46.6275 128.506 47.1393C129.05 47.6511 130.009 47.907 131.385 47.907C132.696 47.907 133.688 47.6191 134.328 47.0113C134.872 46.4995 135.063 45.9237 135.063 44.6442V34.1517C135.063 33.8958 135.223 33.7358 135.447 33.7358H136.791C137.015 33.7358 137.143 33.8638 137.143 34.1517V44.9C137.143 46.5315 136.663 47.7471 135.735 48.5468C134.808 49.3465 133.56 49.6984 131.385 49.6984C129.401 49.6984 127.962 49.3146 127.034 48.5468C126.075 47.7471 125.595 46.5315 125.595 44.9V34.2477" fill="#AEC0CF"/>
<path fill-rule="evenodd" clip-rule="evenodd" d="M140.469 44.5802C140.469 42.6289 141.333 41.1894 142.965 40.5496C143.7 40.2617 144.98 40.1017 146.803 40.1017H147.763C148.563 40.1017 149.267 40.1337 149.906 40.1977V38.3743C149.906 36.0391 148.723 35.2394 146.036 35.2394C144.916 35.2394 143.828 35.3993 142.741 35.7192C142.261 35.8472 142.005 35.8472 141.909 35.4633L141.749 34.7915C141.621 34.4077 141.717 34.1837 142.101 34.0878C143.476 33.6719 144.852 33.448 146.196 33.448C150.29 33.448 151.986 34.8235 151.986 38.1504V49.0907C151.986 49.3466 151.922 49.4106 151.634 49.4106H150.578C150.29 49.4106 150.162 49.3146 150.162 49.0907L150.098 48.0031H150.034C149.33 49.1227 148.211 49.6985 146.643 49.6985H145.044C143.636 49.6985 142.357 49.2826 141.621 48.5469C140.853 47.7792 140.469 46.7875 140.469 45.5399V44.5802ZM142.581 45.284C142.581 46.2757 142.805 46.9474 143.253 47.3633C143.668 47.7472 144.308 47.9391 145.204 47.9391H146.515C148.659 47.9391 149.906 46.7875 149.906 44.6122V41.9571C149.394 41.8931 148.755 41.8611 147.987 41.8611H146.196C144.852 41.8611 143.924 42.0851 143.381 42.5009C142.837 42.9168 142.581 43.6205 142.581 44.6122V45.284V45.284Z" fill="#AEC0CF"/>
</svg>
