<svg width="180" height="81" viewBox="0 0 180 81" fill="none" xmlns="http://www.w3.org/2000/svg">
<path fill-rule="evenodd" clip-rule="evenodd" d="M81.6381 49.049L75.0346 39.1777H73.1968V55.5529H75.3647V43.3408L80.9766 51.7475H82.2996L87.9115 43.3408V55.5529H90.0795V39.1777H88.2417L81.6381 49.049" fill="#AEC0CF"/>
<path fill-rule="evenodd" clip-rule="evenodd" d="M101.508 39.1777L94.3738 55.5529H96.7244L98.3852 51.6552H106.928L108.588 55.5529H110.916L103.805 39.1777H101.508ZM102.645 41.5898C102.692 41.7082 102.739 41.8237 102.793 41.9444L106.068 49.6254H99.2441L102.497 41.9461C102.551 41.8239 102.598 41.7083 102.645 41.5898V41.5898Z" fill="#AEC0CF"/>
<path fill-rule="evenodd" clip-rule="evenodd" d="M125.429 53.1964C124.665 53.551 123.628 53.7535 122.57 53.7535C120.968 53.7535 115.743 53.2928 115.743 47.3652C115.743 42.6497 119.395 40.9765 122.523 40.9765C124.242 40.9765 125.842 41.388 127.028 42.1352L127.205 42.2466V40.0288L127.141 39.9969C125.728 39.2901 123.99 38.9009 122.246 38.9009C119.972 38.9009 117.85 39.6531 116.272 41.019C114.492 42.5599 113.551 44.7543 113.551 47.3652C113.551 48.839 113.806 50.1579 114.308 51.2853C114.771 52.3246 115.446 53.2085 116.315 53.9125C118.272 55.4968 120.721 55.8294 122.431 55.8294C124.19 55.8294 126.001 55.4408 127.53 54.735L127.597 54.704V46.7422H125.429V53.1964" fill="#AEC0CF"/>
<path fill-rule="evenodd" clip-rule="evenodd" d="M144.968 51.8404L135.431 39.1777H133.459V55.5529H135.628V42.8675L145.164 55.5529H147.136V39.1777H144.968V51.8404" fill="#AEC0CF"/>
<path fill-rule="evenodd" clip-rule="evenodd" d="M160.892 39.2471L160.862 39.1777H158.566L151.431 55.5529H153.782L155.443 51.6552H163.985L165.645 55.5529H167.974L160.892 39.2471ZM159.702 41.5898C159.749 41.7082 159.796 41.8237 159.85 41.9444L163.125 49.6254H156.301L159.554 41.9461C159.608 41.8239 159.655 41.7083 159.702 41.5898V41.5898Z" fill="#AEC0CF"/>
<path fill-rule="evenodd" clip-rule="evenodd" d="M48.3857 32.2117C47.8576 32.2117 47.3389 32.2426 46.8273 32.3069C46.5109 31.9024 46.1635 31.5098 45.7899 31.1363L36.6537 22L27.5174 31.1363C27.1438 31.5098 26.7964 31.9024 26.4801 32.3069C25.9686 32.2426 25.4499 32.2117 24.9216 32.2117H12V45.1333C12 52.2567 17.7959 58.055 24.9216 58.055H48.3857C55.5116 58.055 61.3074 52.2567 61.3074 45.1333V32.2117H48.3857ZM24.9216 36.7323H24.2317C22.9945 41.0934 24.0889 45.9827 27.5174 49.4088L31.643 53.5344L33.3227 55.2165L33.782 55.6757H24.9216C19.1092 55.6757 14.3792 50.9458 14.3792 45.1333V34.5909H25.0478C25.9162 34.6028 26.7608 34.717 27.5674 34.9288C30.4202 35.6663 32.8089 37.5745 34.1864 40.106C35.0002 41.6001 35.464 43.3132 35.464 45.1333V53.9912L29.1995 47.7267C26.2802 44.8074 25.4333 40.589 26.6633 36.9154C26.1017 36.7941 25.5189 36.7323 24.9216 36.7323ZM36.6537 39.7182C36.2992 38.9521 35.8709 38.224 35.376 37.5483C33.8295 35.4189 31.6478 33.7796 29.1116 32.9088C29.14 32.8779 29.1686 32.8493 29.1995 32.8184L36.6537 25.3642L44.1078 32.8184C44.1387 32.8493 44.1673 32.8779 44.1959 32.9088C41.6596 33.7796 39.4779 35.4189 37.9313 37.5483C37.4364 38.224 37.0082 38.9521 36.6537 39.7182ZM58.9281 45.1333C58.9281 50.9458 54.1982 55.6757 48.3857 55.6757H39.5254L39.9846 55.2165L41.6644 53.5344L45.7899 49.4088C49.2184 45.9827 50.3129 41.0934 49.0756 36.7323H48.3857C47.7886 36.7323 47.2056 36.7941 46.6441 36.9154C47.8742 40.589 47.0271 44.8074 44.1078 47.7267L37.8433 53.9912V45.1333C37.8433 43.3132 38.3073 41.6001 39.121 40.106C40.4985 37.5745 42.8873 35.6663 45.74 34.9288C46.5466 34.717 47.3911 34.6028 48.2595 34.5909H58.9281V45.1333V45.1333Z" fill="#AEC0CF"/>
</svg>
