<svg width="180" height="81" viewBox="0 0 180 81" fill="none" xmlns="http://www.w3.org/2000/svg">
<path fill-rule="evenodd" clip-rule="evenodd" d="M53.7504 25.2076L51.6719 32.3357H62.363L36.0303 66.9845L42.9602 42.7302H36.426L42.762 14.021H76.2228L67.8083 25.2076H53.7504" fill="#AEC0CF"/>
<path fill-rule="evenodd" clip-rule="evenodd" d="M81.9336 30.1995C83.1514 30.1995 84.0282 30.3943 84.759 30.7353L84.3449 33.3902C83.9308 33.1953 83.3463 33.0492 82.6156 33.0492C81.3734 33.0492 80.3017 33.4876 80.0825 34.9003L79.912 35.8989H83.4681L83.0296 38.7486H79.4492L78.0609 47.59H74.6753L76.088 38.7486H74.0664L74.5292 35.8989H76.5264L76.7456 34.5593C77.2814 31.125 79.7415 30.1995 81.9336 30.1995" fill="#AEC0CF"/>
<path fill-rule="evenodd" clip-rule="evenodd" d="M96.6692 35.8989L94.818 47.5901H91.8466L92.0901 46.08C91.0915 47.2247 89.6789 47.9311 88.047 47.9311C85.0267 47.9311 83.4923 45.739 83.9307 43.0111L85.0511 35.8989H88.4123L87.3406 42.7918C87.0727 44.375 87.8521 45.0083 89.0699 45.0083C90.3852 45.0083 91.4812 44.2289 92.1145 43.4495L93.3079 35.8989H96.6692" fill="#AEC0CF"/>
<path fill-rule="evenodd" clip-rule="evenodd" d="M102.612 53.2895C100.566 53.2895 98.8369 52.8024 97.5947 52.096L98.0575 49.2463C99.2267 50.05 100.664 50.4397 102.296 50.4397C104.39 50.4397 106.241 49.5873 106.607 47.3221L106.777 46.2504C106.144 47.0298 104.877 47.931 102.807 47.931C99.1048 47.931 97.4243 44.8378 97.9601 41.5252C98.4472 38.4563 100.883 35.5579 104.463 35.5579C106.436 35.5579 107.727 36.4104 108.458 37.75L108.774 35.8989H111.795L109.992 47.3708C109.31 51.6576 106.046 53.2895 102.612 53.2895ZM103.757 45.0813C105.34 45.0813 106.607 44.1314 107.264 43.084L107.727 40.2343C107.435 39.2357 106.485 38.4076 105.121 38.4076C103.099 38.4076 101.638 39.8446 101.321 41.8419C101.053 43.5468 101.906 45.0813 103.757 45.0813V45.0813Z" fill="#AEC0CF"/>
<path fill-rule="evenodd" clip-rule="evenodd" d="M112.842 47.59L114.693 35.8989H118.079L116.228 47.59H112.842ZM116.837 33.9747C115.716 33.9747 114.815 33.2684 115.034 31.8313C115.229 30.6135 116.155 30.1021 117.153 30.1021C118.298 30.1021 119.175 30.8327 118.956 32.2454C118.761 33.4632 117.835 33.9747 116.837 33.9747V33.9747Z" fill="#AEC0CF"/>
<path fill-rule="evenodd" clip-rule="evenodd" d="M124.289 47.931C120.587 47.931 118.907 44.8378 119.442 41.5252C119.93 38.4563 122.317 35.5579 125.946 35.5579C128.089 35.5579 129.356 36.7027 129.965 37.8474L130.281 35.8989H133.253L131.402 47.59H128.43L128.698 45.8607C127.797 47.0055 126.36 47.931 124.289 47.931ZM125.239 45.0813C126.823 45.0813 128.089 44.0827 128.747 43.0353L129.21 40.3074C128.942 39.2601 127.992 38.4076 126.603 38.4076C124.582 38.4076 123.12 39.8934 122.804 41.8175C122.536 43.5468 123.388 45.0813 125.239 45.0813V45.0813Z" fill="#AEC0CF"/>
<path fill-rule="evenodd" clip-rule="evenodd" d="M140.925 31.6851L140.268 35.8987H143.97L143.507 38.7485H139.805L139.05 43.4249C138.855 44.6671 139.342 45.0812 140.584 45.0812C141.412 45.0812 142.143 44.935 142.849 44.6428L142.411 47.4194C141.68 47.7361 140.535 47.9309 139.366 47.9309C137.15 47.9309 135.177 46.7861 135.64 43.8877L136.444 38.7485H134.471L134.933 35.8987H136.882L137.442 32.5132L140.925 31.6851" fill="#AEC0CF"/>
</svg>
