<svg width="180" height="81" viewBox="0 0 180 81" fill="none" xmlns="http://www.w3.org/2000/svg">
<path fill-rule="evenodd" clip-rule="evenodd" d="M26.6813 54.719L43.8311 64.6204C45.4881 65.5771 47.5295 65.5771 49.1865 64.6204L66.3362 54.719C67.9931 53.7623 69.0139 51.9944 69.0139 50.0811V30.2783C69.0139 28.365 67.9931 26.597 66.3362 25.6404L49.1865 15.739C47.5295 14.7823 45.4881 14.7823 43.8311 15.739L26.6813 25.6404C25.0244 26.597 24.0037 28.365 24.0037 30.2783V50.0811C24.0037 51.9944 25.0244 53.7623 26.6813 54.719ZM50.4642 44.5566C46.7663 47.8983 47.2633 50.4444 49.6995 53.1401H49.6929C50.3845 53.9033 50.8094 54.9126 50.8094 56.0236C50.8094 58.3988 48.8839 60.3243 46.5087 60.3243C44.1336 60.3243 42.2081 58.3988 42.2081 56.0236C42.2081 54.9126 42.6331 53.9033 43.3246 53.1401H43.318C45.7542 50.4444 46.2512 47.8983 42.5533 44.5566H42.5633C41.3664 43.4768 40.6095 41.9186 40.6095 40.1796C40.6095 38.4407 41.3664 36.8825 42.5633 35.8028H42.5533C46.2512 32.461 45.7542 29.915 43.318 27.2192H43.3246C42.6331 26.456 42.2081 25.4467 42.2081 24.3357C42.2081 21.9606 44.1336 20.0351 46.5087 20.0351C48.8839 20.0351 50.8094 21.9606 50.8094 24.3357C50.8094 25.4467 50.3845 26.456 49.6929 27.2192H49.6995C47.2633 29.915 46.7663 32.461 50.4642 35.8028H50.4542C51.6512 36.8825 52.4081 38.4407 52.4081 40.1796C52.4081 41.9186 51.6512 43.4768 50.4542 44.5566H50.4642ZM37.9008 44.4715C36.6126 43.046 35.8757 41.6613 36.0055 40.1797C35.8757 38.6981 36.6126 37.3134 37.9008 35.8879H37.8943C38.5858 35.1247 39.0107 34.1155 39.0107 33.0044C39.0107 30.6292 37.0852 28.7038 34.7101 28.7038C32.3349 28.7038 30.4095 30.6292 30.4095 33.0044C30.4095 34.1155 30.8345 35.1247 31.526 35.8879H31.5194C32.8076 37.3134 33.5445 38.6981 33.4147 40.1797C33.5445 41.6613 32.8076 43.046 31.5194 44.4715H31.526C30.8345 45.2347 30.4095 46.2439 30.4095 47.355C30.4095 49.7301 32.3349 51.6556 34.7101 51.6556C37.0852 51.6556 39.0107 49.7301 39.0107 47.355C39.0107 46.2439 38.5858 45.2347 37.8943 44.4715H37.9008ZM59.6028 40.1797C59.473 41.6613 60.2099 43.046 61.4981 44.4715H61.4915C62.1831 45.2347 62.608 46.2439 62.608 47.355C62.608 49.7301 60.6826 51.6556 58.3074 51.6556C55.9322 51.6556 54.0068 49.7301 54.0068 47.355C54.0068 46.2439 54.4318 45.2347 55.1233 44.4715H55.1167C56.405 43.046 57.1418 41.6613 57.012 40.1797C57.1418 38.6981 56.405 37.3134 55.1167 35.8879H55.1233C54.4318 35.1247 54.0068 34.1155 54.0068 33.0044C54.0068 30.6292 55.9322 28.7038 58.3074 28.7038C60.6826 28.7038 62.608 30.6292 62.608 33.0044C62.608 34.1155 62.1831 35.1247 61.4915 35.8879H61.4981C60.2099 37.3134 59.473 38.6981 59.6028 40.1797Z" fill="#AEC0CF"/>
<path fill-rule="evenodd" clip-rule="evenodd" d="M83.4209 30.8445V43.6331C83.4209 44.4779 83.7495 44.9707 84.4299 44.9707C84.8992 44.9707 85.3216 44.8064 85.744 44.5953L85.9082 47.1999C85.345 47.4345 84.2891 47.7396 83.1393 47.7396C81.3091 47.7396 80.1357 46.8479 80.1357 44.431V30.8445H83.4209" fill="#AEC0CF"/>
<path fill-rule="evenodd" clip-rule="evenodd" d="M99.6824 43.7272C99.6824 44.4312 99.8701 44.9708 100.527 44.9708C100.996 44.9708 101.372 44.8066 101.771 44.5954L101.912 47.2001C101.301 47.4816 100.292 47.7397 99.2365 47.7397C97.8521 47.7397 96.9839 47.1766 96.6318 45.9564C95.7871 46.9419 94.4261 47.7163 92.7366 47.7163C89.3107 47.7163 86.9875 45.0882 86.9875 41.4041C86.9875 37.6731 89.3107 35.0215 92.7366 35.0215C94.3322 35.0215 95.5759 35.4673 96.3972 36.2886V35.2326H99.6824V43.7272ZM96.3972 38.9871C95.834 38.4005 94.7546 37.8842 93.6518 37.8842C91.6103 37.8842 90.3196 39.2922 90.3196 41.4041C90.3196 43.469 91.6337 44.8769 93.6518 44.8769C94.7312 44.8769 95.7401 44.3842 96.3972 43.7741V38.9871V38.9871Z" fill="#AEC0CF"/>
<path fill-rule="evenodd" clip-rule="evenodd" d="M110.875 47.7396C109.209 47.7396 108.012 47.2234 107.191 46.4021V47.505H103.906V30.8445H107.191V36.265C108.036 35.5141 109.303 35.0213 110.875 35.0213C114.325 35.0213 116.648 37.6495 116.648 41.357C116.648 45.0646 114.325 47.7396 110.875 47.7396ZM109.96 37.8841C108.857 37.8841 107.825 38.4003 107.191 39.0339V43.7505C107.754 44.3136 108.81 44.8768 109.96 44.8768C111.978 44.8768 113.292 43.4689 113.292 41.357C113.292 39.2686 111.978 37.8841 109.96 37.8841V37.8841Z" fill="#AEC0CF"/>
<path fill-rule="evenodd" clip-rule="evenodd" d="M124.837 34.9041C128.685 34.9041 131.454 37.673 131.454 41.404C131.454 45.0881 128.685 47.8335 124.837 47.8335C121.036 47.8335 118.267 45.0881 118.267 41.404C118.267 37.673 121.036 34.9041 124.837 34.9041ZM124.837 44.8299C126.902 44.8299 128.286 43.3281 128.286 41.404C128.286 39.4329 126.902 37.9076 124.837 37.9076C122.819 37.9076 121.434 39.4329 121.434 41.404C121.434 43.3281 122.819 44.8299 124.837 44.8299V44.8299Z" fill="#AEC0CF"/>
<path fill-rule="evenodd" clip-rule="evenodd" d="M134.81 39.034C134.81 38.3066 134.645 37.7904 133.965 37.7904C133.472 37.7904 132.909 38.0251 132.721 38.1424L132.58 35.5612C132.745 35.3969 133.965 35.0215 135.255 35.0215C136.663 35.0215 137.578 35.5847 137.93 36.8753C138.517 35.7254 139.409 35.0215 141.004 35.0215C142.154 35.0215 143.046 35.4438 143.21 35.7254L142.741 38.6821C142.553 38.424 141.614 38.0485 140.488 38.0485C138.916 38.0485 138.306 39.4095 138.095 40.8409V47.5051H134.81V39.034" fill="#AEC0CF"/>
<path fill-rule="evenodd" clip-rule="evenodd" d="M155.882 46.1675C154.614 47.1999 152.808 47.8335 150.719 47.8335C146.096 47.8335 144.031 45.0177 144.031 41.404C144.031 37.7433 146.566 34.9041 150.508 34.9041C154.239 34.9041 155.999 37.1802 155.999 40.0195C155.999 40.7704 155.882 41.9437 155.741 42.413H147.411C147.716 44.126 148.818 45.0881 150.813 45.0881C152.362 45.0881 153.793 44.4545 154.638 43.8209L155.882 46.1675ZM152.855 39.4563C152.855 38.4708 152.104 37.626 150.438 37.626C148.678 37.626 147.739 38.682 147.504 39.8787H152.831C152.855 39.7614 152.855 39.5737 152.855 39.4563V39.4563Z" fill="#AEC0CF"/>
</svg>
