<svg width="180" height="81" viewBox="0 0 180 81" fill="none" xmlns="http://www.w3.org/2000/svg">
<path fill-rule="evenodd" clip-rule="evenodd" d="M59.6513 47.8708C56.9216 53.0338 51.4946 56.5598 45.2596 56.5598H29.4119V47.8708H59.6513" fill="#AEC0CF"/>
<path fill-rule="evenodd" clip-rule="evenodd" d="M59.6508 32.7135H28.012V24.0247H45.2596C51.4945 24.0247 56.9211 27.5506 59.6508 32.7135" fill="#AEC0CF"/>
<path fill-rule="evenodd" clip-rule="evenodd" d="M61.3282 40.2925C61.3282 41.645 61.1511 42.9989 60.8004 44.3321H31.7092V36.2529H60.8004C61.1511 37.5857 61.3282 38.9395 61.3282 40.2925" fill="#AEC0CF"/>
<path fill-rule="evenodd" clip-rule="evenodd" d="M82.4563 31.7107V45.9268H80.1379L79.9752 44.5438C79.2023 45.7437 77.9617 46.1505 76.7415 46.1505C73.7925 46.1505 71.5757 44.1981 71.5757 40.9034C71.5757 37.446 73.7518 35.6562 76.6804 35.6562C77.738 35.6562 79.3854 36.2257 79.9752 37.2629V31.7107H82.4563ZM74.0569 40.9034C74.0569 42.6524 75.3178 43.8524 76.9041 43.8524C78.4702 43.8524 79.8124 42.7134 79.8124 40.9034C79.8124 39.1543 78.4702 37.9747 76.9041 37.9747C75.3178 37.9747 74.0569 39.0933 74.0569 40.9034V40.9034Z" fill="#AEC0CF"/>
<path fill-rule="evenodd" clip-rule="evenodd" d="M94.7199 35.9001L88.5983 50.1162H85.873L87.7441 45.764L83.7375 35.9001H86.6255L88.1508 40.2321L89.1067 43.059L90.1439 40.2931L91.9743 35.9001H94.7199" fill="#AEC0CF"/>
<path fill-rule="evenodd" clip-rule="evenodd" d="M103.404 45.9268V40.6797C103.404 39.1543 102.57 37.9951 100.984 37.9951C99.4585 37.9951 98.4213 39.2764 98.4213 40.8017V45.9268H95.9604V35.8799H98.1773L98.3399 37.2425C99.3569 36.246 100.374 35.7375 101.635 35.7375C103.994 35.7375 105.885 37.507 105.885 40.6593V45.9268H103.404" fill="#AEC0CF"/>
<path fill-rule="evenodd" clip-rule="evenodd" d="M115.973 35.9002H118.352V45.9268H116.013L115.891 44.4624C115.322 45.642 113.756 46.2115 112.637 46.2318C109.668 46.2521 107.471 44.4218 107.471 40.9033C107.471 37.4459 109.77 35.6358 112.698 35.6562C114.041 35.6562 115.322 36.2866 115.891 37.2832L115.973 35.9002ZM109.953 40.9033C109.953 42.8151 111.275 43.954 112.922 43.954C116.827 43.954 116.827 37.873 112.922 37.873C111.275 37.873 109.953 38.9916 109.953 40.9033V40.9033Z" fill="#AEC0CF"/>
<path fill-rule="evenodd" clip-rule="evenodd" d="M127.312 45.9269V40.5577C127.312 39.2357 126.621 38.0358 125.258 38.0358C123.916 38.0358 123.123 39.2357 123.123 40.5577V45.9269H120.641V35.88H122.94L123.123 37.1003C123.651 36.0834 124.811 35.7173 125.766 35.7173C126.966 35.7173 128.166 36.2054 128.736 37.5884C129.631 36.1647 130.79 35.758 132.092 35.758C134.939 35.758 136.342 37.507 136.342 40.517V45.9269H133.861V40.517C133.861 39.195 133.312 38.0765 131.969 38.0765C130.627 38.0765 129.793 39.2357 129.793 40.5577V45.9269H127.312" fill="#AEC0CF"/>
<path fill-rule="evenodd" clip-rule="evenodd" d="M141.374 33.0733C141.374 35.0054 138.446 35.0054 138.446 33.0733C138.446 31.1412 141.374 31.1412 141.374 33.0733ZM138.67 45.9268H141.151V35.8596H138.67V45.9268Z" fill="#AEC0CF"/>
<path fill-rule="evenodd" clip-rule="evenodd" d="M151.99 44.6454C150.831 45.7844 149.611 46.2318 148.126 46.2318C145.218 46.2318 142.798 44.4827 142.798 40.9236C142.798 37.3645 145.218 35.6155 148.126 35.6155C149.55 35.6155 150.648 36.0222 151.746 37.1001L150.18 38.7475C149.591 38.2187 148.858 37.9543 148.167 37.9543C146.499 37.9543 145.279 39.1746 145.279 40.9236C145.279 42.8354 146.581 43.8523 148.126 43.8523C148.919 43.8523 149.713 43.6286 150.323 43.0184L151.99 44.6454" fill="#AEC0CF"/>
</svg>
