<svg width="32" height="32" viewBox="0 0 32 32" fill="none" xmlns="http://www.w3.org/2000/svg">
<path d="M16 28C22.6274 28 28 22.6274 28 16C28 9.37258 22.6274 4 16 4C9.37258 4 4 9.37258 4 16C4 22.6274 9.37258 28 16 28Z" stroke="black" stroke-width="2" stroke-linecap="round" stroke-linejoin="round"/>
<path d="M15.978 19.5V17.0789C16.7339 17.0789 17.4729 16.8567 18.1014 16.4403C18.7299 16.0239 19.2198 15.4321 19.5091 14.7396C19.7984 14.0472 19.8741 13.2853 19.7266 12.5502C19.5791 11.8151 19.2151 11.1399 18.6806 10.6099C18.1461 10.0799 17.465 9.71903 16.7236 9.57282C15.9822 9.4266 15.2137 9.50164 14.5153 9.78846C13.8169 10.0753 13.22 10.561 12.8 11.1842" stroke="black" stroke-width="2" stroke-linecap="round" stroke-linejoin="round"/>
<path d="M16 24C16.5523 24 17 23.5523 17 23C17 22.4477 16.5523 22 16 22C15.4477 22 15 22.4477 15 23C15 23.5523 15.4477 24 16 24Z" fill="black" stroke="black" stroke-width="0.5" stroke-linecap="round" stroke-linejoin="round"/>
</svg>
