<svg id="Layer_1" data-name="Layer 1" xmlns="http://www.w3.org/2000/svg" viewBox="0 0 26.28 28.6"><defs><style>.cls-1{fill:#fcfcfc;}</style></defs><path class="cls-1" d="M411.3,362.76h-1.57a.69.69,0,0,1-.8-.8c0-.34,0-.67,0-1a.67.67,0,0,1,.77-.74h5.22a.45.45,0,0,0,.5-.33c.35-.88.72-1.77,1.1-2.64a2.76,2.76,0,0,1,2.63-1.77q2.91-.06,5.82,0a2.76,2.76,0,0,1,2.63,1.76c.37.85.74,1.71,1.08,2.58a.53.53,0,0,0,.59.4c1.7,0,3.41,0,5.11,0,.58,0,.81.24.82.82v.9c0,.6-.24.84-.84.84h-1.54v17.45a4.17,4.17,0,0,1-1.23,3.06,2.49,2.49,0,0,1-1.84.77H414.4a2.92,2.92,0,0,1-2.67-1.84,4.21,4.21,0,0,1-.43-1.95V362.76Zm2.62,0c0,.1,0,.19,0,.27q0,8.55,0,17.11a3.31,3.31,0,0,0,.24,1,.48.48,0,0,0,.52.32h14.8a.48.48,0,0,0,.52-.32,4.49,4.49,0,0,0,.24-1.19c0-5.59,0-11.18,0-16.77v-.42Zm4.17-2.61H426c-.27-.67-.51-1.3-.79-1.92a.51.51,0,0,0-.39-.21h-5.56a.49.49,0,0,0-.39.21C418.62,358.88,418.36,359.51,418.09,360.18Z" transform="translate(-408.92 -355.44)"/><path class="cls-1" d="M425.5,372.12V367c0-.62.23-.85.85-.86h1a.68.68,0,0,1,.73.69v10.38c0,.78-.19,1-1,1h-.71c-.7,0-.92-.22-.92-.91Z" transform="translate(-408.92 -355.44)"/><path class="cls-1" d="M418.62,372.13v5.12c0,.66-.22.88-.89.89h-1a.65.65,0,0,1-.71-.65c0-.11,0-.22,0-.33V367.07c0-.77.2-1,1-1h.86c.51,0,.76.27.76.81C418.63,368.65,418.62,370.39,418.62,372.13Z" transform="translate(-408.92 -355.44)"/><path class="cls-1" d="M420.78,372.13v-5.19c0-.61.23-.83.83-.84h.93c.56,0,.8.24.8.79v10.34c0,.71-.19.9-.9.91h-.82c-.62,0-.84-.21-.84-.82Z" transform="translate(-408.92 -355.44)"/></svg>